; NON-PLATED HOLES START AT T1
; THROUGH (PLATED) HOLES START AT T100
M48
INCH
T1C0.064972
T2C0.125984
T100C0.038194
T101C0.035000
T102C0.051056
T103C0.040000
T104C0.051083
%
T1
X007899Y021535
T2
X057399Y024535
X057399Y004535
X002399Y021035
X002399Y008535
T100
X053399Y014035
X053399Y015035
X053399Y012035
X038399Y021035
X043399Y021035
X044399Y002035
X032399Y002035
X028799Y021035
X026799Y021035
X031799Y021035
X053399Y021035
X052399Y013035
X045399Y021035
X052399Y008035
X044399Y021035
X046399Y021035
X037399Y002035
X048399Y021035
X053399Y009035
X037399Y021035
X022799Y021035
X035399Y021035
X052399Y016035
X052399Y021035
X053399Y017035
X053399Y018035
X036399Y021035
X030799Y021035
X040399Y021035
X053399Y020035
X053399Y008035
X033399Y021035
X052399Y020035
X052399Y009035
X053399Y006035
X052399Y017035
X052399Y012035
X053399Y016035
X041399Y002035
X052399Y018035
X052399Y005035
X052399Y019035
X034399Y021035
X027799Y021035
X042399Y002035
X053399Y013035
X050399Y002035
X029799Y021035
X042399Y021035
X052399Y007035
X038399Y002035
X046399Y002035
X031399Y002035
X052399Y004035
X053399Y005035
X052399Y006035
X052399Y010035
X030399Y002035
X048399Y002035
X035399Y002035
X045399Y002035
X052399Y011035
X040399Y002035
X053399Y011035
X053399Y019035
X023799Y021035
X027399Y002035
X053399Y004035
X029399Y002035
X053399Y007035
X052399Y015035
X036399Y002035
X025799Y021035
X047399Y021035
X024799Y021035
X039399Y002035
X052399Y014035
X026399Y002035
X033399Y002035
X028399Y002035
X049399Y021035
X047399Y002035
X039399Y021035
X051399Y002035
X049399Y002035
X053399Y010035
T101
X026899Y025535
X001899Y025535
X005899Y025535
X047899Y025535
X008899Y025535
X036899Y025535
X015899Y025535
X043899Y025535
X022899Y025535
X033899Y025535
X012899Y025535
X050899Y025535
X054899Y025535
X040899Y025535
X029899Y025535
X019899Y025535
T102
X011056Y007636
X010057Y007636
X009056Y007636
X008057Y007636
T103
X027899Y027535
X048899Y027535
X053899Y027535
X002899Y027535
X037899Y027535
X020899Y027535
X013899Y027535
X006899Y027535
X034899Y027535
X039899Y027535
X016899Y027535
X023899Y027535
X025899Y027535
X051899Y027535
X018899Y027535
X032899Y027535
X044899Y027535
X004899Y027535
X046899Y027535
X030899Y027535
X011899Y027535
X055899Y027535
X041899Y027535
X009899Y027535
T104
X011899Y021535
X006899Y021535
X007899Y021535
X008899Y021535
X010899Y021535
X009899Y021535
T00
M30
